<svg viewBox="0 0 67 13" xmlns="http://www.w3.org/2000/svg" aria-hidden="true" focusable="false" role="presentation" class="icon icon-afterpay" fill="none"><g fill="currentColor"><path d="m5.40717 5.97927c0-1.10322-.83083-1.87956-1.85233-1.87956-1.02151 0-1.85233.78996-1.85233 1.87956 0 1.07599.83082 1.87957 1.85233 1.87957 1.0215 0 1.85233-.77634 1.85233-1.87957zm.01362 3.28243v-.85806c-.50395.58566-1.25305.9534-2.15197.9534-1.86595 0-3.26882-1.44372-3.26882-3.37777 0-1.93404 1.47097-3.39138 3.30968-3.39138.87168 0 1.60716.36774 2.11111.93978v-.83082h1.66164v6.56485z"/><path d="m15.227 7.79075c-.5856 0-.7491-.2043-.7491-.76273v-2.90108h1.076v-1.4301h-1.076v-1.59355h-1.7161v1.59355h-2.2065v-.39499c0-.5448.2179-.76272.8172-.76272h.3814v-1.266669h-.8172c-1.4165 0-2.08388.449463-2.08388 1.811469v.62653h-.95341v1.41648h.95341v5.13477h1.71608v-5.13477h2.2065v3.21434c0 1.33477.5312 1.92043 1.9204 1.92043h.8853v-1.45734h-.3541z"/><path d="m21.5194 5.37999c-.1226-.85806-.8445-1.362-1.6889-1.362-.8445 0-1.5391.50394-1.7161 1.362zm-3.4187 1.02151c.1226.96702.8445 1.52544 1.757 1.52544.7219 0 1.2803-.32688 1.6072-.85806h1.757c-.4086 1.38924-1.7025 2.28816-3.3914 2.28816-2.0566 0-3.4867-1.38924-3.4867-3.36414 0-1.97491 1.5254-3.40501 3.5275-3.40501 2.0294 0 3.4868 1.44372 3.4868 3.40501 0 .14982-.0136.28602-.0409.42222h-5.2165z"/><path d="m34.1182 5.96566c0-1.06236-.8308-1.87957-1.8523-1.87957s-1.8523.78997-1.8523 1.87957c0 1.07598.8308 1.87956 1.8523 1.87956 1.0351 0 1.8523-.8172 1.8523-1.87956zm-5.3799-3.26881h1.6753v.85806c.5039-.59928 1.253-.96702 2.1519-.96702 1.8387 0 3.2689 1.45734 3.2689 3.37777 0 1.93404-1.471 3.39138-3.3097 3.39138-.8581 0-1.5663-.32688-2.0567-.8853v3.47306h-1.7297z"/><path d="m42.0449 5.97927c0-1.10322-.8309-1.87956-1.8524-1.87956s-1.8523.78996-1.8523 1.87956c0 1.07599.8308 1.87957 1.8523 1.87957s1.8524-.77634 1.8524-1.87957zm.0136 3.28243v-.85806c-.504.58566-1.2531.9534-2.152.9534-1.8659 0-3.2688-1.44372-3.2688-3.37777 0-1.93404 1.471-3.39138 3.3097-3.39138.8717 0 1.6071.36774 2.1111.93978v-.83082h1.6752v6.56485z"/><path d="m25.7691 3.35061s.4222-.76272 1.4709-.76272c.4495 0 .7355.14982.7355.14982v1.67526s-.6265-.38136-1.1985-.29964c-.5721.08172-.9398.58566-.9398 1.26667v3.8817h-1.7298v-6.56485h1.6753v.65376z"/><path d="m51.675 2.724-4.2222 9.2344h-1.7843l1.6617-3.56846-2.7921-5.66594h2.0158l1.6344 3.78637 1.6752-3.78637z"/><path d="m65.6149 2.56772-4.1813-2.329037c-1.2258-.681004-2.7649.177062-2.7649 1.539067v.24516c0 .21792.1226.42223.3132.51757l.79.43584c.2316.1362.5176-.02724.5176-.28602v-.59929c0-.29964.3269-.4767.5993-.3405l3.6229 2.01577c.2724.14983.2724.51757 0 .66739l-3.6093 2.02939c-.2724.14982-.5993-.04086-.5993-.3405v-.31326c0-1.37563-1.5391-2.22008-2.7649-1.53907l-4.1813 2.32903c-1.2259.68101-1.2259 2.39714 0 3.07814l4.1813 2.329c1.2258.681 2.7649-.177 2.7649-1.539v-.2452c0-.2179-.1226-.4086-.3133-.51756l-.7899-.43584c-.2316-.1362-.5176.02724-.5176.28602v.59928c0 .2996-.3269.4767-.5993.3405l-3.6229-2.01577c-.2724-.14982-.2724-.51756 0-.66738l3.6229-2.01577c.2724-.14982.5993.04086.5993.3405v.31326c0 1.37563 1.5391 2.22007 2.7649 1.53907l4.1813-2.32903c1.2259-.69463 1.2259-2.41076-.0136-3.09176z"/></g></svg>